{"title":"Hiroshima - The revenge of pearl harbor -DOLBY-5 1 Whitevegeta","uid":4844778,"size":3560871612,"categoryP":"video","categoryS":"movies","magnet":"?xt=urn:btih:b3b3f13bd1bc2229ba57454b0f9d5bd01c059bce&amp;dn=Hiroshima+-+The+revenge+of+pearl+harbor+-DOLBY-5+1+Whitevegeta&amp;tr=udp%3A%2F%2Ftracker.openbittorrent.com%3A80&amp;tr=udp%3A%2F%2Fopen.demonii.com%3A1337&amp;tr=udp%3A%2F%2Ftracker.coppersurfer.tk%3A6969&amp;tr=udp%3A%2F%2Fexodus.desync.com%3A6969","seeders":1,"leechers":0,"uploader":"whitevegeta","files":-1,"time":1239639146,"description":"Format : AVI\nFormat/Info : Audio Video Interleave\nFormat profile : OpenDML\nFile size : 3.32 GiB\nDuration : 2h 57mn\nOverall bit rate : 2 674 Kbps\nWriting application : VirtualDubMod 1.5.4.1 (build 2178/release)\nWriting library : VirtualDubMod build 2178/release\n\nVideo\nFormat : MPEG-4 Visual\nFormat settings, BVOP : Yes\nFormat settings, QPel : No\nFormat settings, GMC : No warppoints\nFormat settings, Matrix : Default\nCodec ID : DX50\nCodec ID/Hint : DivX 5\nDuration : 2h 57mn\nBit rate : 2 219 Kbps\nWidth : 720 pixels\nHeight : 544 pixels\nDisplay aspect ratio : 4/3\nFrame rate : 25.000 fps\nResolution : 24 bits\nColorimetry : 4:2:0\nScan type : Progressive\nBits/(Pixel*Frame) : 0.227\nStream size : 2.75 GiB (83%)\nWriting library : DivX 2816\n\nAudio\nFormat : AC-3\nFormat/Info : Audio Coding 3\nCodec ID : 2000\nDuration : 2h 57mn\nBit rate mode : Constant\nBit rate : 448 Kbps\nChannel(s) : 6 channels\nChannel positions : Front: L C R, Surround: L R, LFE\nSampling rate : 48.0 KHz\nStream size : 569 MiB (17%)\nAlignment : Split accross interleaves\nInterleave, duration : 80 ms (2.00 video frames)\nInterleave, preload duration : 500 ms\nLanguage : English","torrent":{"xt":"urn:btih:b3b3f13bd1bc2229ba57454b0f9d5bd01c059bce","amp;dn":"Hiroshima+-+The+revenge+of+pearl+harbor+-DOLBY-5+1+Whitevegeta","amp;tr":["udp%3A%2F%2Ftracker.openbittorrent.com%3A80","udp%3A%2F%2Fopen.demonii.com%3A1337","udp%3A%2F%2Ftracker.coppersurfer.tk%3A6969","udp%3A%2F%2Fexodus.desync.com%3A6969"],"infoHash":"b3b3f13bd1bc2229ba57454b0f9d5bd01c059bce","infoHashBuffer":{"type":"Buffer","data":[179,179,241,59,209,188,34,41,186,87,69,75,15,157,91,208,28,5,155,206]},"announce":[],"urlList":[]}}